<svg xmlns="http://www.w3.org/2000/svg" viewBox="0 0 64 64">
  <defs><radialGradient id="pink" cx="35%" cy="25%" r="80%"><stop stop-color="#ffcee4"/><stop offset=".7" stop-color="#ff8fbb"/><stop offset="1" stop-color="#e65c9a"/></radialGradient></defs>
  <g stroke="#ad326a" stroke-width="1.5">
    <ellipse cx="19" cy="53" rx="14" ry="9" fill="#e94372" transform="rotate(-15 19 53)"/>
    <ellipse cx="45" cy="53" rx="14" ry="9" fill="#e94372" transform="rotate(15 45 53)"/>
    <ellipse cx="9" cy="35" rx="8" ry="12" fill="#ff9ac5" transform="rotate(25 9 35)"/>
    <ellipse cx="55" cy="35" rx="8" ry="12" fill="#ff9ac5" transform="rotate(-25 55 35)"/>
    <circle cx="32" cy="30" r="25" fill="url(#pink)"/>
  </g>
  <g fill="#202447"><ellipse cx="25" cy="27" rx="3.4" ry="8"/><ellipse cx="39" cy="27" rx="3.4" ry="8"/></g>
  <g fill="#426bbd"><ellipse cx="25" cy="31" rx="2.2" ry="2.7"/><ellipse cx="39" cy="31" rx="2.2" ry="2.7"/></g>
  <g fill="white"><ellipse cx="24.5" cy="23" rx="1.6" ry="3"/><ellipse cx="38.5" cy="23" rx="1.6" ry="3"/></g>
  <g fill="#ee608f"><ellipse cx="16" cy="37" rx="5" ry="2.8"/><ellipse cx="48" cy="37" rx="5" ry="2.8"/></g>
  <path d="M27 39 Q32 37 37 39 Q36 47 32 47 Q28 47 27 39" fill="#8d285b"/>
  <path d="M29 44 Q32 41 35 44 Q32 48 29 44" fill="#ff859d"/>
</svg>
